<svg width="162" height="28" viewBox="0 0 162 28" fill="none" xmlns="http://www.w3.org/2000/svg">
<path d="M12.915 13.63L11.515 16.57H5.74L12.915 0.994999L21.805 20.35H10.745L11.515 18.705H15.225L12.915 13.63ZM20.37 21.82L21.805 24.97L16.975 27.07L16.205 25.39H6.72L5.95 27.07H0.14L4.305 18.005H10.08L8.33 21.82H20.37ZM36.6294 8.73H30.1544V11.39H28.6144V3.48H36.6294C38.0061 3.48 39.2777 3.81833 40.4444 4.495C41.6344 5.17167 42.5677 6.105 43.2444 7.295C43.9444 8.46167 44.2944 9.745 44.2944 11.145C44.2944 11.985 44.1544 12.8017 43.8744 13.595C43.6177 14.3883 43.2444 15.1117 42.7544 15.765C42.2644 16.395 41.6927 16.9433 41.0394 17.41L39.1494 14.68H31.0994V13.525H36.6294C37.2827 13.525 37.8427 13.2917 38.3094 12.825C38.7761 12.3583 39.0094 11.7983 39.0094 11.145C39.0094 10.7017 38.9044 10.305 38.6944 9.955C38.4844 9.58167 38.1927 9.29 37.8194 9.08C37.4461 8.84667 37.0494 8.73 36.6294 8.73ZM38.6594 15.66L46.3594 26.965H40.0594L34.7044 18.81H30.1544V24.655L24.8694 26.93V3.48H27.6694V12.335H30.1544V15.66H38.6594ZM64.3604 19.79L68.1404 23.5C67.0437 24.5967 65.7604 25.46 64.2904 26.09C62.8204 26.6967 61.3037 27 59.7404 27C56.5904 27 53.872 25.9033 51.5854 23.71C49.322 21.5167 48.132 18.8567 48.0154 15.73H49.4154C49.4387 16.64 49.5904 17.5267 49.8704 18.39C50.1504 19.2533 50.5354 20.07 51.0254 20.84C51.5154 21.61 52.0987 22.31 52.7754 22.94L53.0904 23.22L56.2404 20.665C57.3137 21.365 58.4804 21.715 59.7404 21.715C61.5604 21.715 63.1004 21.0733 64.3604 19.79ZM50.3604 15.24V14.785H48.0154C48.132 11.635 49.322 8.975 51.5854 6.805C53.872 4.61167 56.5904 3.515 59.7404 3.515C61.3037 3.515 62.8087 3.81833 64.2554 4.425C65.702 5.00833 66.9737 5.84833 68.0704 6.945L64.3254 10.69C63.0654 9.40667 61.537 8.765 59.7404 8.765C57.967 8.765 56.4387 9.40667 55.1554 10.69C53.8954 11.95 53.2654 13.4667 53.2654 15.24C53.2654 17.1767 53.9887 18.7867 55.4354 20.07L53.1254 21.96C51.282 20.0933 50.3604 17.8533 50.3604 15.24ZM80.3513 14.995L79.2313 17.445H73.4213L80.3513 2.36L89.0313 21.26H78.5663L79.0913 20.035H82.6963L80.3513 14.995ZM89.4862 22.205L90.7113 24.9L85.8813 26.965L85.1113 25.32H75.6263L74.8563 26.965H69.0463L73.0013 18.39H78.8113L77.0613 22.205H89.4862ZM109.394 6.56C110.514 7.68 111.377 8.99833 111.984 10.515C112.614 12.0083 112.929 13.56 112.929 15.17C112.929 17.2933 112.439 19.265 111.459 21.085C110.479 22.8817 109.137 24.305 107.434 25.355C105.754 26.405 103.922 26.93 101.939 26.93H99.6289V21.645H101.904C103.467 21.645 104.809 21.015 105.929 19.755C107.072 18.4717 107.644 16.9433 107.644 15.17C107.644 13.2333 106.991 11.6233 105.684 10.34C104.587 9.26667 103.339 8.73 101.939 8.73H98.6839V17.2H96.0939V5.58H93.3989V3.48L101.904 3.445C104.774 3.445 107.271 4.48333 109.394 6.56ZM95.1139 6.56V18.18H98.6489V26.965H93.3989V6.56H95.1139ZM116.4 3.515H121.685V14.05H120.25V6.875H116.4V3.515ZM119.27 7.82V15.03H121.685V26.965L116.4 24.69V7.82H119.27ZM135.449 14.995L134.329 17.445H128.519L135.449 2.36L144.129 21.26H133.664L134.189 20.035H137.794L135.449 14.995ZM144.584 22.205L145.809 24.9L140.979 26.965L140.209 25.32H130.724L129.954 26.965H124.144L128.099 18.39H133.909L132.159 22.205H144.584ZM161.312 15.765H158.582V13.07H161.312V15.765ZM161.312 22.8H158.582V20.105H161.312V22.8Z" fill="white"/>
</svg>
